<svg width="24" height="24" viewBox="0 0 24 24" fill="none" xmlns="http://www.w3.org/2000/svg">
<path d="M21.4997 14.2247C21.4997 14.4585 21.4071 14.6825 21.2421 14.8476C21.0771 15.0128 20.8534 15.1057 20.6201 15.1057L5.51544 15.1057L10.4303 20.0277C10.6344 20.2532 10.7078 20.5683 10.6243 20.8611C10.5408 21.1538 10.3122 21.3825 10.0201 21.4661C9.7278 21.5497 9.41311 21.4763 9.18783 21.2719L2.76921 14.8591C2.59913 14.6949 2.5021 14.469 2.50003 14.2325C2.49797 13.9958 2.59104 13.7682 2.75832 13.6011C2.9256 13.4341 3.15311 13.3413 3.38928 13.344L20.6205 13.344C20.8537 13.344 21.0774 13.4367 21.2425 13.602C21.4074 13.7672 21.5 13.9912 21.5 14.2248L21.4997 14.2247ZM21.2402 9.18644L14.8216 2.77361C14.658 2.60152 14.4321 2.50286 14.1949 2.50006C13.9577 2.49726 13.7294 2.59046 13.5618 2.75857C13.3943 2.92668 13.3017 3.15541 13.3049 3.39298C13.3081 3.63041 13.4071 3.85661 13.5791 4.02L18.494 8.92881L3.38927 8.92881C3.07504 8.92881 2.78465 9.09663 2.62753 9.36915C2.47041 9.64167 2.47041 9.97758 2.62753 10.2501C2.78465 10.5226 3.07503 10.6904 3.38927 10.6904L20.6204 10.6904C20.7945 10.6907 20.9649 10.6391 21.1098 10.5422C21.2545 10.4454 21.3674 10.3078 21.434 10.1466C21.4774 10.0395 21.4998 9.92511 21.5 9.80964C21.4995 9.57561 21.4062 9.35145 21.2405 9.18644L21.2402 9.18644Z" fill="white"/>
</svg>
