<svg xmlns="http://www.w3.org/2000/svg" viewBox="0 0 1920 1080"><defs><style>.cls-1{fill:#fff;}</style></defs><title>Artboard 3</title><g id="ArtboardWhite"><path class="cls-1" d="M1043.8,123.26h.41c20.14.24,31.42,17.38,32.31,18.78s11.9,20.46,2.13,39.71c-6.52,12.86-18.33,17.81-21.55,19l-42.22,125.85c7.92,2.49,15.47,4.78,22.16,6.69,15,4.28,23.42,8.6,28,12.32,95.35-16.29,198-29.33,293.64-32.37,0,0,54.36,205.69-132.35,286.08,0,0-223.79,52.6-337.39,91.59L812.86,893.81,699,1004.26l-4.41-152L865.23,504.8c-99.68,28.81-198.36,68.63-265.16,122.93,0,0,4.73-149,94.53-198.6,0,0,133.84-38.86,305.47-71.7l-97.29-33.08s-1.09-7.4,4.15-18c4.41-8.9,14.83-9.61,18-9.61.61,0,1,0,1,0s16.11,5.7,37.32,12.91q24.93-62.39,49.85-124.78a40,40,0,0,1-7.17-25.69c1.19-15.83,11.65-25.21,13.76-27a38.59,38.59,0,0,1,24.12-8.91m0-15h0a53.46,53.46,0,0,0-33.67,12.34l-.12.11-.12.1c-5.19,4.46-17.41,17-18.92,37.27a54.19,54.19,0,0,0,5.47,28L960.38,276.4l-5.78,14.46c-14-4.8-23.55-8.2-23.68-8.24L929,282l-2-.15c-.33,0-1-.06-2-.06-14.14,0-25.91,6.71-31.47,18-7,14.08-5.85,24.82-5.55,26.82l1.33,9.08,8.68,2.95,44.41,15.1c-143.62,29.78-250.74,60.73-251.94,61.08l-1.61.47-1.46.81c-22.75,12.57-42.31,31.8-58.13,57.16-12.31,19.72-22.4,43.19-30,69.76a382.6,382.6,0,0,0-14.16,84.33l-1,32.83,25.49-20.72c51.53-41.88,127.8-78.9,227-110.25L681.13,845.63,679.5,849l.1,3.72,4.42,152,1,34L709.46,1015,823.31,904.57l2.41-2.34,1.19-3.15,73.61-196.21c113.53-38.07,327.09-88.39,329.27-88.91l1.29-.3,1.21-.52c45.21-19.47,80.83-47.68,105.85-83.86,20-28.93,33.21-62.82,39.22-100.75,10.13-63.86-3.56-116.85-4.15-119.08l-3-11.54-11.93.38c-84.09,2.67-181.53,13.29-289.73,31.56-6.82-4.06-15.84-7.67-27.34-11q-3.35-.94-7.16-2.09l35.27-105.15A54.09,54.09,0,0,0,1092,188.54c13.34-26.3-1-51.46-2.66-54.24l-.09-.15-.09-.14c-1.65-2.6-16.92-25.42-44.8-25.75Z"/><path class="cls-1" d="M1310.24,454.57c-27.91,46.31-64.58,72.92-86.56,86.3-42.5,15.42-87.43,30.51-134.71,44.92-50.74,15.45-99.69,28.74-146.53,40.19a273.54,273.54,0,0,0-30.13,15.37c-17.14,10-38.41,24.82-54.95,43.74l364-106.4A196.91,196.91,0,0,0,1294.58,522c42.1-53,43-111.83,42.54-130A250.92,250.92,0,0,1,1310.24,454.57Z"/><path class="cls-1" d="M1298.13,391c8.55-5.87,16.87-11.07,24.81-15.66-217.43-23.64-628.65,106.39-628.65,106.39-61.45,35.46-70.9,96.93-70.9,96.93,101.54-53,242.06-111.26,416.24-141.85a1423.44,1423.44,0,0,1,226.59-21.28A377,377,0,0,1,1298.13,391Z"/><path class="cls-1" d="M916,603.29l42.19-102L1011,487.22l-38.67,95"/></g></svg>