<svg width="24" height="24" viewBox="0 0 24 24" fill="none" xmlns="http://www.w3.org/2000/svg">
<path d="M2.30644 5C1.04183 5 0 6.04206 0 7.30644V17.5577C0 18.8223 1.04206 19.8641 2.30644 19.8641H21.2713C22.5359 19.8641 23.5777 18.8221 23.5777 17.5577V7.30644C23.5777 6.04183 22.5356 5 21.2713 5H2.30644ZM2.82701 6.53778H20.7507L12.1172 13.8976C11.9883 14.0074 11.5893 14.0074 11.4604 13.8976L2.82701 6.53778ZM1.53755 7.45879L7.69608 12.7043L1.53755 17.4776V7.45879ZM22.0401 7.45879V17.478L15.8815 12.7048L22.0401 7.45879ZM8.88962 13.7217L10.4674 15.0671C11.2395 15.7249 12.3383 15.7249 13.1103 15.0671L14.6882 13.7217L20.6385 18.3265H2.93904L8.88962 13.7217Z" fill="#BFBFBF"/>
</svg>
