<svg width="24" height="24" viewBox="0 0 24 24" fill="none" xmlns="http://www.w3.org/2000/svg">
<path d="M9.66399 2H2.21929C1.82192 2 1.5 2.32192 1.5 2.71929V10.164C1.5 10.5614 1.82192 10.8833 2.21929 10.8833H9.66399C10.0614 10.8833 10.3833 10.5614 10.3833 10.164V2.71929C10.3833 2.32192 10.061 2 9.66399 2ZM8.9447 9.4447H2.93859V3.43859H8.9447V9.4447ZM21.1727 4.57137C21.5701 4.57137 21.892 4.24946 21.892 3.85208V2.71935C21.892 2.32197 21.5701 2.00005 21.1727 2.00005H13.728C13.3306 2.00005 13.0087 2.32197 13.0087 2.71935V10.164C13.0087 10.5614 13.3306 10.8833 13.728 10.8833H21.1727C21.5701 10.8833 21.892 10.5614 21.892 10.164V6.01002C21.892 5.61264 21.5701 5.29072 21.1727 5.29072C20.7753 5.29072 20.4534 5.61264 20.4534 6.01002V9.44475H14.4473V3.43864H20.4534V3.85208C20.4534 4.24905 20.7753 4.57137 21.1727 4.57137V4.57137ZM9.66399 13.5086H2.21929C1.82192 13.5086 1.5 13.8305 1.5 14.2279V21.6726C1.5 22.07 1.82192 22.3919 2.21929 22.3919H9.66399C10.0614 22.3919 10.3833 22.07 10.3833 21.6726V14.2279C10.3833 13.8305 10.061 13.5086 9.66399 13.5086ZM8.9447 20.9533H2.93859V14.9472H8.9447V20.9533ZM21.1727 13.5086H13.728C13.3306 13.5086 13.0087 13.8305 13.0087 14.2279V21.6726C13.0087 22.07 13.3306 22.3919 13.728 22.3919H21.1727C21.5701 22.3919 21.892 22.07 21.892 21.6726V14.2279C21.892 13.8305 21.5697 13.5086 21.1727 13.5086ZM20.4534 20.9533H14.4473V14.9472H20.4534V20.9533Z" fill="#DFC777"/>
</svg>
