<svg width="24" height="24" viewBox="0 0 24 24" fill="none" xmlns="http://www.w3.org/2000/svg">
<g clip-path="url(#clip0_601_5511)">
<path d="M22.9698 13.4575C23.0335 12.9794 23.0769 12.4948 23.0769 12C23.0769 5.88277 18.1172 0.923077 12 0.923077C11.5052 0.923077 11.0206 0.966461 10.5425 1.03015C9.48831 0.381231 8.25138 0 6.92308 0C3.09969 0 0 3.09969 0 6.92308C0 8.25138 0.381231 9.48831 1.03015 10.5425C0.966461 11.0206 0.923077 11.5052 0.923077 12C0.923077 18.1172 5.88277 23.0769 12 23.0769C12.4948 23.0769 12.9794 23.0335 13.4575 22.9698C14.5117 23.6188 15.7486 24 17.0769 24C20.9003 24 24 20.9003 24 17.0769C24 15.7486 23.6188 14.5117 22.9698 13.4575ZM12.1375 18.4615C8.54123 18.4615 6.47631 16.5766 6.47631 14.7268C6.47631 13.7834 7.464 13.4815 7.85908 13.4815C8.772 13.4815 9.07569 14.2265 9.24185 14.568C10.1695 16.4751 11.0612 16.224 11.94 16.3071C12.7163 16.38 14.5385 16.0375 14.5385 14.7065C14.5385 14.5791 14.7388 13.7132 13.1658 13.284C12.1606 13.0089 10.3883 12.672 8.92985 12.1108C7.55815 11.5828 6.75323 10.4954 6.75323 9.09415C6.75323 8.39354 7.11231 5.53846 11.9695 5.53846C15.2114 5.53846 16.9394 7.19908 16.9394 8.66031C16.9394 8.99631 16.8111 9.29261 16.5535 9.55938C16.296 9.82615 15.5705 10.2166 14.7757 9.708C14.5754 9.57969 14.4102 9.31292 14.2126 8.96677C13.9745 8.532 13.5849 7.692 11.7914 7.692C10.0514 7.692 9.56862 8.52185 9.56862 8.868C9.56862 10.0311 11.7886 10.2757 12.3849 10.4298C14.5615 10.9911 17.5228 11.5071 17.5228 14.4415C17.5228 17.8108 14.0169 18.4615 12.1375 18.4615Z" fill="#BFBFBF"/>
</g>
<defs>
<clipPath id="clip0_601_5511">
<rect width="24" height="24" fill="#BFBFBF"/>
</clipPath>
</defs>
</svg>
